<?xml version="1.0" encoding="UTF-8"?>
<svg version="1.1" xmlns="http://www.w3.org/2000/svg" width="925" height="178">
<path d="M0 0 C26 0 26 0 32.4375 5.6875 C33.60255023 7.48607082 34.7676991 9.28653745 35.84472656 11.13916016 C37.82677402 14.3317142 40.33594655 17.0609803 42.8125 19.875 C43.66457031 20.88304688 44.51664063 21.89109375 45.39453125 22.9296875 C48.25145013 26.29631154 51.12646734 29.64754523 54 33 C54.33 22.11 54.66 11.22 55 0 C62.92 0 70.84 0 79 0 C80.09691523 46.22714175 80.09691523 46.22714175 80.125 60.8125 C80.12951172 61.76898438 80.13402344 62.72546875 80.13867188 63.7109375 C80.12455468 69.87544532 80.12455468 69.87544532 79 71 C56.96766692 73.82128628 56.96766692 73.82128628 50.43359375 68.93359375 C47.91961583 66.09679363 45.96930424 63.23528554 44 60 C42.48423459 58.10399992 40.94261965 56.22835634 39.375 54.375 C38.72273437 53.55773437 38.07046875 52.74046875 37.3984375 51.8984375 C34.0403991 47.84035201 30.49940557 43.93683126 27 40 C26.67 50.23 26.34 60.46 26 71 C17.42 71 8.84 71 0 71 C0 47.57 0 24.14 0 0 Z " fill="#000000" transform="translate(555,58)"/>
<path d="M0 0 C11.034375 -0.020625 22.06875 -0.04125 33.4375 -0.0625 C38.67065063 -0.07615601 38.67065063 -0.07615601 44.00952148 -0.09008789 C46.75504518 -0.09300673 49.50056931 -0.09555536 52.24609375 -0.09765625 C52.9641066 -0.10026962 53.68211945 -0.102883 54.42189026 -0.10557556 C56.52664519 -0.11285571 58.63131842 -0.11390733 60.73608398 -0.11352539 C61.92411118 -0.115746 63.11213837 -0.11796661 64.33616638 -0.12025452 C67 0 67 0 68 1 C68 7.6 68 14.2 68 21 C54.14 21 40.28 21 26 21 C26 22.32 26 23.64 26 25 C39.86 25 53.72 25 68 25 C68 31.93 68 38.86 68 46 C54.14 46 40.28 46 26 46 C26 47.65 26 49.3 26 51 C39.86 51 53.72 51 68 51 C68 57.6 68 64.2 68 71 C45.56 71 23.12 71 0 71 C0 47.57 0 24.14 0 0 Z " fill="#000000" transform="translate(154,58)"/>
<path d="M0 0 C12.808125 -0.0928125 12.808125 -0.0928125 25.875 -0.1875 C28.55093262 -0.21481201 31.22686523 -0.24212402 33.98388672 -0.27026367 C36.1324824 -0.27903506 38.28108312 -0.28667745 40.4296875 -0.29296875 C41.52289307 -0.30831665 42.61609863 -0.32366455 43.74243164 -0.33947754 C53.17372917 -0.34265877 61.26910117 0.84046467 68.52734375 7.20703125 C74.17742001 14.08603656 73.80188087 21.51646492 73 30 C71.40122303 36.19526076 67.30786496 40.54858042 62 44 C61.34 44 60.68 44 60 44 C63.57464263 51.38497598 67.38782989 58.50873573 71.6796875 65.50390625 C73 68 73 68 73 71 C68.79313516 71.29133413 64.58885739 71.46826779 60.375 71.625 C59.18519531 71.70878906 57.99539063 71.79257813 56.76953125 71.87890625 C53.26306799 71.97685215 50.38736781 71.92635297 47 71 C44.04203987 68.06258618 42.59903593 64.80886844 41 61 C40.31110364 59.74064482 39.60750489 58.48910234 38.8828125 57.25 C38.30273438 56.1775 37.72265625 55.105 37.125 54 C36.52945313 52.906875 35.93390625 51.81375 35.3203125 50.6875 C34 48 34 48 34 46 C31.03 46 28.06 46 25 46 C25 54.25 25 62.5 25 71 C16.75 71 8.5 71 0 71 C0 47.57 0 24.14 0 0 Z M25 21 C25 22.32 25 23.64 25 25 C32.59 25 40.18 25 48 25 C48 23.68 48 22.36 48 21 C40.41 21 32.82 21 25 21 Z " fill="#000000" transform="translate(230,58)"/>
<path d="M0 0 C1.02906464 0.00424484 2.05812927 0.00848969 3.11837769 0.01286316 C6.36826016 0.02950236 9.61749609 0.06712644 12.8671875 0.10546875 C15.08592847 0.12053468 17.30467928 0.13421972 19.5234375 0.14648438 C24.93013005 0.17679095 30.3354449 0.23554072 35.7421875 0.29296875 C35.7421875 7.22296875 35.7421875 14.15296875 35.7421875 21.29296875 C22.5421875 21.62296875 9.3421875 21.95296875 -4.2578125 22.29296875 C-4.2578125 22.95296875 -4.2578125 23.61296875 -4.2578125 24.29296875 C-3.01386719 24.34195313 -1.76992188 24.3909375 -0.48828125 24.44140625 C26.97317941 25.62301932 26.97317941 25.62301932 35.34375 33.87109375 C40.21130551 40.12549469 39.60864982 47.75887262 38.7421875 55.29296875 C37.25917994 61.27105514 33.82488154 64.52453866 28.9375 68.06640625 C22.35316538 71.74519819 16.12921381 71.55683255 8.78125 71.48828125 C7.63554535 71.48545135 6.4898407 71.48262146 5.30941772 71.47970581 C1.66189995 71.4685401 -1.98536935 71.44344174 -5.6328125 71.41796875 C-8.11067353 71.4079343 -10.58853842 71.39880926 -13.06640625 71.390625 C-19.13030359 71.36861251 -25.19401596 71.33410713 -31.2578125 71.29296875 C-31.2578125 64.69296875 -31.2578125 58.09296875 -31.2578125 51.29296875 C-28.40511719 51.24398437 -25.55242187 51.195 -22.61328125 51.14453125 C-19.85305495 51.09053466 -17.09291609 51.03322198 -14.33276367 50.97558594 C-12.41323346 50.93728298 -10.49363115 50.90243242 -8.57397461 50.87109375 C-5.8159812 50.82547173 -3.05848473 50.76747295 -0.30078125 50.70703125 C0.98841972 50.68970444 0.98841972 50.68970444 2.30366516 50.67202759 C3.10426865 50.6521579 3.90487213 50.63228821 4.72973633 50.61181641 C5.78563713 50.5918309 5.78563713 50.5918309 6.86286926 50.57144165 C9.07316214 50.3805269 9.07316214 50.3805269 11.7421875 48.29296875 C9.98465191 46.53543316 7.47331412 47.16319003 5.08984375 47.15234375 C3.92001953 47.13300781 2.75019531 47.11367187 1.54492188 47.09375 C-0.91325249 47.06037531 -3.37167863 47.04170452 -5.83007812 47.0390625 C-13.56337328 46.87874323 -19.89781665 45.96709805 -26.2578125 41.29296875 C-31.90065527 34.52632938 -32.91711125 27.91456779 -32.2578125 19.29296875 C-31.21871254 12.89211298 -28.6804947 9.07574387 -23.87890625 4.80078125 C-16.35575861 0.47300928 -8.50608734 -0.13488288 0 0 Z " fill="#000000" transform="translate(422.2578125,57.70703125)"/>
<path d="M0 0 C1.12890625 1.53125 1.12890625 1.53125 0.92700195 3.36791992 C-0.73243222 7.86600686 -4.79409309 11.00850057 -8.12109375 14.34375 C-8.88550781 15.14490234 -9.64992187 15.94605469 -10.4375 16.77148438 C-11.18386719 17.52365234 -11.93023437 18.27582031 -12.69921875 19.05078125 C-13.37887695 19.74276611 -14.05853516 20.43475098 -14.75878906 21.14770508 C-16.87109375 22.53125 -16.87109375 22.53125 -19.45214844 22.3503418 C-21.87109375 21.53125 -21.87109375 21.53125 -24.74609375 19.90625 C-28.73628155 18.15056737 -30.69864026 18.33912043 -34.87109375 19.53125 C-37.77771616 21.401655 -40.29825824 23.38557899 -41.87109375 26.53125 C-42.22126681 31.8713891 -42.339396 35.19587219 -38.87109375 39.53125 C-35.58831323 42.81403052 -32.45481842 43.37319053 -27.87109375 43.53125 C-24.73766342 42.21456939 -24.73766342 42.21456939 -21.87109375 40.53125 C-19.47021484 39.69848633 -19.47021484 39.69848633 -16.87109375 39.53125 C-14.63525391 41.0065918 -14.63525391 41.0065918 -12.41015625 43.23046875 C-11.60964844 44.02775391 -10.80914062 44.82503906 -9.984375 45.64648438 C-9.16324219 46.49533203 -8.34210938 47.34417969 -7.49609375 48.21875 C-6.65175781 49.04826172 -5.80742188 49.87777344 -4.9375 50.73242188 C-0.34398094 55.38942859 -0.34398094 55.38942859 1.12890625 57.53125 C0.9139989 60.2316867 0.48222334 61.178814 -1.4375 63.09375 C-12.6375221 71.15951934 -22.67533947 74.51008229 -36.6640625 73.06640625 C-49.5709499 70.91263819 -59.26294655 64.07469124 -66.87109375 53.53125 C-72.32911954 42.81967777 -73.85771778 30.16874576 -71.15234375 18.40625 C-70.21335889 15.98306327 -69.15691424 13.78773889 -67.87109375 11.53125 C-67.49726562 10.82871094 -67.1234375 10.12617187 -66.73828125 9.40234375 C-60.88232946 -0.81648602 -52.56791362 -6.53708008 -41.44921875 -10.28515625 C-25.97796159 -14.20783315 -12.27941628 -9.63895725 0 0 Z " fill="#000000" transform="translate(80.87109375,57.46875)"/>
<path d="M0 0 C4.14581887 -0.02886751 8.29161216 -0.04675327 12.4375 -0.0625 C14.21350586 -0.07506836 14.21350586 -0.07506836 16.02539062 -0.08789062 C17.15009766 -0.09111328 18.27480469 -0.09433594 19.43359375 -0.09765625 C20.47572021 -0.10289307 21.51784668 -0.10812988 22.59155273 -0.11352539 C25 0 25 0 26 1 C26.1109417 3.95799982 26.1616645 6.89656663 26.17578125 9.85546875 C26.1989903 11.69337069 26.22310806 13.53126134 26.24804688 15.36914062 C26.28309931 18.27457097 26.31246334 21.1795895 26.32592773 24.08520508 C26.34144686 26.88413922 26.38169518 29.68185749 26.42578125 32.48046875 C26.42387283 33.34318893 26.42196442 34.20590912 26.41999817 35.09477234 C26.53228862 40.65906444 27.37514758 43.71854816 31 48 C34.46015135 49.73007568 38.21672555 49.4835273 42 49 C45.49890004 46.88608123 46.70578686 45.88263941 48 42 C48.11294746 40.60420727 48.17589187 39.20400091 48.20532227 37.80395508 C48.2352401 36.54298759 48.2352401 36.54298759 48.26576233 35.25654602 C48.29083107 33.90172371 48.29083107 33.90172371 48.31640625 32.51953125 C48.33718735 31.59154221 48.35796844 30.66355316 48.37937927 29.70744324 C48.44477323 26.7425376 48.50371262 23.77754328 48.5625 20.8125 C48.60569487 18.8027252 48.64930947 16.79295937 48.69335938 14.78320312 C48.80123429 9.85555833 48.90038332 4.92784639 49 0 C57.58 0 66.16 0 75 0 C75.0691779 6.22601089 75.12881982 12.45066766 75.16479492 18.67675781 C75.17980487 20.7910618 75.2002192 22.90533507 75.22631836 25.01953125 C75.26304633 28.07299421 75.27980474 31.12604257 75.29296875 34.1796875 C75.30845261 35.11239471 75.32393646 36.04510193 75.33988953 37.006073 C75.34236643 46.84599791 73.16652816 55.42945423 66.3515625 62.77734375 C57.55911327 71.26474882 46.91156088 73.10471702 35 73 C25.13104213 72.37054483 16.74932271 70.02659969 9.125 63.5625 C-1.46091301 50.79713431 -0.38765549 37.08450105 -0.1875 21.3125 C-0.17242854 19.24284826 -0.15874449 17.17318593 -0.14648438 15.10351562 C-0.11366789 10.06874574 -0.06202071 5.03449137 0 0 Z " fill="#000000" transform="translate(309,58)"/>
<path d="M0 0 C4.26799757 -0.24911983 8.53205051 -0.42947331 12.80517578 -0.54931641 C14.25481912 -0.59930411 15.70396581 -0.6673306 17.15185547 -0.75439453 C29.1414051 -1.45674582 29.1414051 -1.45674582 33.64453125 2.07275391 C35.69471338 4.61884048 37.37210332 7.16899267 39 10 C39.763125 11.04414062 40.52625 12.08828125 41.3125 13.1640625 C41.869375 13.97617188 42.42625 14.78828125 43 15.625 C43.5775 16.46289062 44.155 17.30078125 44.75 18.1640625 C45.36875 19.07285156 45.36875 19.07285156 46 20 C47.56407486 17.98036936 49.12627973 15.95933562 50.6875 13.9375 C51.12255859 13.37611328 51.55761719 12.81472656 52.00585938 12.23632812 C52.44091797 11.67236328 52.87597656 11.10839844 53.32421875 10.52734375 C53.78143311 9.95556396 54.23864746 9.38378418 54.7097168 8.79467773 C56.05825542 7.03989867 56.05825542 7.03989867 56.90942383 5.01977539 C58.06509917 2.71456103 58.88626313 1.50793578 61 0 C66.12190565 -0.87999217 71.14866995 -0.6583393 76.3125 -0.4375 C77.73494981 -0.40236379 79.15748253 -0.37042876 80.58007812 -0.34179688 C84.05511532 -0.26489551 87.52703174 -0.14424469 91 0 C91 4.21926778 90.81823984 4.73788642 88.4296875 7.87890625 C87.86934814 8.62648193 87.30900879 9.37405762 86.73168945 10.14428711 C86.11898193 10.94229736 85.50627441 11.74030762 84.875 12.5625 C83.59476731 14.26280645 82.31482825 15.96333403 81.03515625 17.6640625 C80.3714502 18.5396582 79.70774414 19.41525391 79.02392578 20.31738281 C75.7466665 24.66123384 72.53216192 29.05089197 69.3125 33.4375 C68.16322124 34.99903719 67.01351242 36.56025798 65.86328125 38.12109375 C65.38157471 38.7752124 64.89986816 39.42933105 64.40356445 40.10327148 C63 42 63 42 61.35302734 43.8762207 C59.59162184 46.64101076 59.57152177 48.59634668 59.48828125 51.859375 C59.43861206 53.36709473 59.43861206 53.36709473 59.38793945 54.90527344 C59.35059692 56.80841309 59.35059692 56.80841309 59.3125 58.75 C59.209375 62.7925 59.10625 66.835 59 71 C50.75 71 42.5 71 34 71 C34.04125 67.143125 34.0825 63.28625 34.125 59.3125 C33.87535229 47.13610893 31.39595671 41.41934377 23 33 C21.36578477 30.94015315 19.76182134 28.8559774 18.1875 26.75 C17.37306896 25.68338473 16.55659873 24.61832397 15.73828125 23.5546875 C15.30854004 22.99491211 14.87879883 22.43513672 14.43603516 21.85839844 C12.79416669 19.73362748 11.13732362 17.6209157 9.48046875 15.5078125 C8.27856944 13.96360112 7.0767458 12.41933084 5.875 10.875 C5.29387451 10.13991211 4.71274902 9.40482422 4.11401367 8.64746094 C3.57881104 7.9568457 3.0436084 7.26623047 2.4921875 6.5546875 C2.01120605 5.94093262 1.53022461 5.32717773 1.03466797 4.69482422 C0 3 0 3 0 0 Z " fill="#000000" transform="translate(461,58)"/>
<path d="M0 0 C2.5625 2.3125 2.5625 2.3125 4 4 C1.90554772 8.62274182 -1.28923456 11.73141687 -4.8125 15.3125 C-5.42931641 15.97056641 -6.04613281 16.62863281 -6.68164062 17.30664062 C-8.38810274 19.04211804 -10.00013037 20.612087 -12 22 C-15.005574 21.97921456 -16.3651633 21.31741835 -19 20 C-24.87637814 19.38217959 -24.87637814 19.38217959 -29.9375 22.0625 C-32.40599406 25.57823396 -33 27.71383323 -33 32 C-31.70501017 35.16553069 -30.36747781 36.69376849 -27.75 38.875 C-24.09760058 40.3691634 -21.79534546 39.91369428 -18 39 C-17.01 38.34 -16.02 37.68 -15 37 C-11.4505971 37.29696376 -9.75516406 38.88909894 -7.328125 41.37890625 C-6.66425781 42.05244141 -6.00039063 42.72597656 -5.31640625 43.41992188 C-4.63449219 44.12697266 -3.95257812 44.83402344 -3.25 45.5625 C-2.20392578 46.62887695 -2.20392578 46.62887695 -1.13671875 47.71679688 C0.5824658 49.47130714 2.29425872 51.23243352 4 53 C1.28780421 58.81195479 -3.58021567 61.45391263 -9.32421875 64.05078125 C-19.71524429 67.67475875 -30.39560428 67.26013786 -40.3125 62.5390625 C-49.24295279 57.42482064 -54.29558121 50.31031051 -58.3125 40.9375 C-60.84102654 30.13379568 -60.39461672 19.67575962 -54.41015625 10.02734375 C-47.89945161 0.66707864 -41.19516212 -4.01432345 -29.953125 -6.5 C-18.96359948 -8.36066041 -9.25965042 -6.20396578 0 0 Z " fill="#000000" transform="translate(700,64)"/>
<path d="M0 0 C8.25 0 16.5 0 25 0 C26 1 26 1 26.12025452 3.01844788 C26.1169236 4.3474839 26.1169236 4.3474839 26.11352539 5.70336914 C26.11344986 6.70433121 26.11337433 7.70529327 26.11329651 8.73658752 C26.10813522 9.8251152 26.10297394 10.91364288 26.09765625 12.03515625 C26.0962413 13.14354355 26.09482635 14.25193085 26.09336853 15.39390564 C26.08775033 18.95013069 26.07519475 22.50629383 26.0625 26.0625 C26.05748734 28.46679597 26.05292403 30.87109292 26.04882812 33.27539062 C26.0386239 39.18363706 26.01905205 45.09174885 26 51 C38.21 51 50.42 51 63 51 C63 57.6 63 64.2 63 71 C42.21 71 21.42 71 0 71 C0 47.57 0 24.14 0 0 Z " fill="#000000" transform="translate(86,58)"/>
<path d="M0 0 C0.85722656 0.33773437 1.71445312 0.67546875 2.59765625 1.0234375 C8.34845155 3.26670151 14.0162772 5.46928021 20 7 C18.68581711 15.19437726 16.72178703 23.08868981 14.4375 31.0625 C14.12103516 32.18849609 13.80457031 33.31449219 13.47851562 34.47460938 C11.14745146 42.70509709 11.14745146 42.70509709 10 45 C-1.64869002 44.94518264 -12.14984159 39.82916948 -22 34 C-19.03242134 27.13316102 -15.1354782 20.95574047 -11 14.75 C-10.48985352 13.98187988 -9.97970703 13.21375977 -9.45410156 12.42236328 C-6.51669482 8.06353918 -3.44168422 3.97312075 0 0 Z " fill="#000000" transform="translate(824,74)"/>
<path d="M0 0 C3.59219795 1.39657986 7.10776594 2.93423011 10.62304688 4.51342773 C17.30312931 7.50350721 23.88167583 10.2033076 31 12 C30.47198194 18.65458053 28.70835049 24.25095255 26.25 30.4375 C25.91484375 31.34693359 25.5796875 32.25636719 25.234375 33.19335938 C24.8940625 34.05638672 24.55375 34.91941406 24.203125 35.80859375 C23.90051758 36.59032959 23.59791016 37.37206543 23.28613281 38.17749023 C22 40 22 40 19.546875 40.80444336 C8.51454383 41.65153857 -4.66122391 32.18946517 -14 27 C-12.36138149 21.0833116 -9.41647172 16.00845461 -6.4375 10.6875 C-5.93025391 9.76904297 -5.42300781 8.85058594 -4.90039062 7.90429688 C-1.15299263 1.15299263 -1.15299263 1.15299263 0 0 Z " fill="#000000" transform="translate(801,109)"/>
<path d="M0 0 C2.00359663 2.50449579 4.00299596 5.0039624 5.9375 7.5625 C8.08064581 10.09530869 10.35137889 12.01353417 13 14 C11.67572716 17.60841324 10.07294587 20.62238939 7.91796875 23.80078125 C7.31533203 24.69603516 6.71269531 25.59128906 6.09179688 26.51367188 C5.46337891 27.43728516 4.83496094 28.36089844 4.1875 29.3125 C0.01606356 35.48029786 -4.09680252 41.65823343 -8 48 C-17.34361049 45.02626502 -24.30574795 35.30607416 -29.171875 27.19140625 C-30 25 -30 25 -29.8984375 22.97265625 C-25.53762367 13.39782589 -9.23270605 4.24518896 0 0 Z " fill="#000000" transform="translate(809,58)"/>
<path d="M0 0 C0.19829171 6.00345239 -0.45833253 11.28484503 -1.8125 17.125 C-1.97814453 17.89714844 -2.14378906 18.66929687 -2.31445312 19.46484375 C-3.33015591 23.96459874 -4.4061437 28.11828498 -7 32 C-9.28515625 32.86328125 -9.28515625 32.86328125 -12 33 C-13.00933594 33.05542969 -14.01867187 33.11085937 -15.05859375 33.16796875 C-35.42857143 33.28571429 -35.42857143 33.28571429 -42 30 C-40.23484194 23.30921039 -37.87690915 16.88044139 -35.375 10.4375 C-35.06167725 9.62748535 -34.74835449 8.8174707 -34.42553711 7.98291016 C-32.12875336 2.12875336 -32.12875336 2.12875336 -31 1 C-29.51997579 0.92511894 -28.03646003 0.91678798 -26.5546875 0.9375 C-25.18570313 0.94910156 -25.18570313 0.94910156 -23.7890625 0.9609375 C-21.86978743 0.98666505 -19.95051644 1.01269895 -18.03125 1.0390625 C-11.94387146 1.09021694 -6.02224022 0 0 0 Z " fill="#000000" transform="translate(866,121)"/>
<path d="M0 0 C1.95838402 2.43288235 3.90192217 4.87065718 5.7890625 7.359375 C10.10000604 12.97277383 14.63837439 17.49666203 20.19140625 21.89453125 C20.78824219 22.58933594 21.38507812 23.28414062 22 24 C21.62655953 27.54841815 20.52923459 30.23725017 18.78515625 33.3203125 C18.34623047 34.10277344 17.90730469 34.88523438 17.45507812 35.69140625 C16.76575195 36.89603516 16.76575195 36.89603516 16.0625 38.125 C15.60681641 38.93582031 15.15113281 39.74664062 14.68164062 40.58203125 C12.86858357 43.79403569 11.04711403 46.92932895 9 50 C-0.19853229 48.58484119 -7.72705199 38.39366531 -13.3203125 31.67578125 C-15.24560202 28.60875027 -15.87760396 26.61539064 -16 23 C-12.88679861 14.40103649 -6.54031618 6.32296428 0 0 Z " fill="#000000" transform="translate(777,83)"/>
<path d="M0 0 C2.91575616 13.08619135 3.36404756 25.61985191 3 39 C-3.38986081 40.46984287 -9.38323873 41.2999941 -15.9375 41.1875 C-16.67806641 41.18685547 -17.41863281 41.18621094 -18.18164062 41.18554688 C-21.37545559 41.1595339 -23.95072183 41.01642606 -27 40 C-25.34978187 32.32648572 -23.45350459 24.72650323 -21.5 17.125 C-21.19191406 15.90296875 -20.88382813 14.6809375 -20.56640625 13.421875 C-20.26605469 12.25398438 -19.96570313 11.08609375 -19.65625 9.8828125 C-19.38619141 8.82465332 -19.11613281 7.76649414 -18.83789062 6.67626953 C-18 4 -18 4 -16 1 C-13.06640625 0.48828125 -13.06640625 0.48828125 -9.5625 0.3125 C-8.40878906 0.24675781 -7.25507812 0.18101563 -6.06640625 0.11328125 C-4.045297 0.03861607 -2.02248795 0 0 0 Z " fill="#000000" transform="translate(863,80)"/>
<path d="M0 0 C0.99 0.33 1.98 0.66 3 1 C3.08847317 4.45816686 3.14087725 7.91603579 3.1875 11.375 C3.21263672 12.34050781 3.23777344 13.30601563 3.26367188 14.30078125 C3.32917855 20.8077779 2.88700703 27.06115204 0 33 C-6.43679135 39.38624063 -17.45912498 43.78518843 -26.42578125 44.1328125 C-27.27527344 44.08898437 -28.12476563 44.04515625 -29 44 C-28.73445312 42.94683594 -28.46890625 41.89367187 -28.1953125 40.80859375 C-27.83829514 39.35162289 -27.48154445 37.89458666 -27.125 36.4375 C-26.93067383 35.67260254 -26.73634766 34.90770508 -26.53613281 34.11962891 C-25.6065783 30.29646116 -24.89085062 26.72018762 -24.8515625 22.77734375 C-24.74598816 18.72085257 -24.57651791 15.75054989 -23 12 C-18.95172034 8.72325057 -13.92042875 7.38462181 -9.03369141 5.83105469 C-6.78119499 4.91058677 -5.09777211 3.73244004 -3.16796875 2.2578125 C-2.12253906 1.51273437 -1.07710937 0.76765625 0 0 Z " fill="#000000" transform="translate(891,108)"/>
<path d="M0 0 C3.23431521 1.34851619 4.63355044 2.49910829 6.25390625 5.59765625 C6.63353516 6.31759766 7.01316406 7.03753906 7.40429688 7.77929688 C7.78650391 8.53275391 8.16871094 9.28621094 8.5625 10.0625 C8.94857422 10.78888672 9.33464844 11.51527344 9.73242188 12.26367188 C17.60532559 27.43275894 17.60532559 27.43275894 16 34 C10.6866546 39.91925321 2.26160483 43.19866955 -5 46 C-5.99 46 -6.98 46 -8 46 C-8.07347656 44.06060547 -8.07347656 44.06060547 -8.1484375 42.08203125 C-8.51941468 33.1871466 -8.9789207 24.49372876 -10.59765625 15.7265625 C-11.05014606 12.66017524 -11.39707841 10.08791825 -11 7 C-8.84765625 5.13671875 -8.84765625 5.13671875 -6.0625 3.6875 C-5.14597656 3.19636719 -4.22945312 2.70523438 -3.28515625 2.19921875 C-2.15400391 1.60560547 -2.15400391 1.60560547 -1 1 C-0.67 0.67 -0.34 0.34 0 0 Z " fill="#000000" transform="translate(876,72)"/>
<path d="M0 0 C0.495 7.425 0.495 7.425 1 15 C0.03320312 15.6290625 -0.93359375 16.258125 -1.9296875 16.90625 C-14.51020209 24.91028408 -14.51020209 24.91028408 -25.62890625 34.7421875 C-26.08136719 35.15726563 -26.53382813 35.57234375 -27 36 C-29.1875 35.6875 -29.1875 35.6875 -31 35 C-33.56085327 27.65888728 -34.82627063 19.48703257 -33.41015625 11.796875 C-31.49362979 7.9956757 -29.60600365 7.36856875 -25.6875 5.8125 C-24.75949585 5.4419751 -24.75949585 5.4419751 -23.81274414 5.06396484 C-16.09790764 2.09483559 -8.28992408 0 0 0 Z " fill="#000000" transform="translate(807,42)"/>
<path d="M0 0 C0.03738281 0.97839844 0.07476563 1.95679688 0.11328125 2.96484375 C0.59729061 12.75187382 0.59729061 12.75187382 3.4765625 22.0703125 C4.20256534 24.74677073 3.84175274 26.36547581 3 29 C1.3984375 31.25390625 1.3984375 31.25390625 -0.625 33.5625 C-5.15793842 38.98729814 -8.60131432 44.81864042 -12 51 C-15 50 -15 50 -16.14379883 48.1015625 C-18.7553051 41.63873751 -19.74199881 35.95768154 -19.6875 29 C-19.68024902 28.03175293 -19.67299805 27.06350586 -19.66552734 26.06591797 C-19.44345918 19.59968686 -18.65159753 14.95644263 -14.21484375 9.984375 C-13.48394531 9.32953125 -12.75304687 8.6746875 -12 8 C-11.13503906 7.22140625 -10.27007813 6.4428125 -9.37890625 5.640625 C-2.67823276 0 -2.67823276 0 0 0 Z " fill="#000000" transform="translate(772,54)"/>
<path d="M0 0 C4.86723428 1.83631963 9.5038428 4.12268699 14.1875 6.375 C20.70456704 9.48953228 27.21452465 12.50559647 34 15 C33.46515599 20.34844008 31.53309233 24.35796103 29 29 C16.61158752 28.13569215 3.68296837 21.55852958 -6 14 C-5.57202798 8.29370646 -3.15654048 4.58921384 0 0 Z " fill="#000000" transform="translate(786,137)"/>
<path d="M0 0 C4.92651356 0.4075241 7.58308255 2.89633205 11 6.1875 C11.50789062 6.65736328 12.01578125 7.12722656 12.5390625 7.61132812 C21.58073147 16.10817858 21.58073147 16.10817858 22.48046875 20.16796875 C21.30825665 28.24841751 17.29208049 35.79698762 12 42 C11.34 42 10.68 42 10 42 C9.79431396 41.48203857 9.58862793 40.96407715 9.37670898 40.43041992 C3.88205771 26.6893571 3.88205771 26.6893571 -3.84765625 14.12890625 C-5 12 -5 12 -4.8125 9.98046875 C-3.9378483 7.84850522 -2.99545996 5.79766443 -1.9375 3.75 C-1.57527344 3.04359375 -1.21304688 2.3371875 -0.83984375 1.609375 C-0.56269531 1.07828125 -0.28554688 0.5471875 0 0 Z " fill="#000000" transform="translate(884,60)"/>
<path d="M0 0 C4.38263404 0.78928954 8.73107189 1.71029135 13.07617188 2.68359375 C12.75428303 4.01973613 12.41807952 5.35243333 12.07617188 6.68359375 C11.9034375 7.41578125 11.73070312 8.14796875 11.55273438 8.90234375 C10.43064467 11.90830884 9.46218878 13.48829588 7.07617188 15.68359375 C1.75136165 17.72711832 -4.03405646 18.33731712 -9.63623047 19.24658203 C-13.54764794 19.99380052 -17.13396613 21.42137205 -20.79492188 22.94921875 C-22.92382812 23.68359375 -22.92382812 23.68359375 -26.92382812 23.68359375 C-25.03610428 16.2405683 -21.61635267 10.70934115 -16.92382812 4.68359375 C-16.16070313 3.65234375 -15.39757812 2.62109375 -14.61132812 1.55859375 C-9.97433237 -1.67651957 -5.41149328 -0.89001209 0 0 Z " fill="#000000" transform="translate(801.923828125,24.31640625)"/>
<path d="M0 0 C1.64594243 0.14459681 3.29174731 0.29075936 4.9375 0.4375 C6.45923828 0.57285156 6.45923828 0.57285156 8.01171875 0.7109375 C10.43623664 0.94546603 12.83657263 1.23947913 15.25 1.5625 C21.79403955 2.32816459 28.42302038 2.0779879 35 2 C34.01963124 6.8379067 32.00575786 10.06589323 28 13 C17.21667634 16.36427945 5.05503928 15.47400524 -6 14 C-5.37720331 12.41579871 -4.75166599 10.83267469 -4.125 9.25 C-3.60292969 7.92742187 -3.60292969 7.92742187 -3.0703125 6.578125 C-2.1353291 4.3259752 -1.12219206 2.16350541 0 0 Z " fill="#000000" transform="translate(822,153)"/>
<path d="M0 0 C-0.54952751 3.89633716 -1.10093816 7.79240281 -1.65405273 11.68823242 C-1.93376509 13.66115616 -2.21200969 15.6342878 -2.49023438 17.60742188 C-2.66748047 18.85458984 -2.84472656 20.10175781 -3.02734375 21.38671875 C-3.18968506 22.53358154 -3.35202637 23.68044434 -3.51928711 24.86206055 C-3.93814856 27.59625365 -4.43038814 30.29378955 -5 33 C-12.00180272 33.7956594 -17.83641532 31.20817499 -24 28 C-24.33 27.34 -24.66 26.68 -25 26 C-19.04901277 18.29270422 -12.67974222 11.0738885 -6 4 C-5.27296875 3.22398438 -4.5459375 2.44796875 -3.796875 1.6484375 C-2 0 -2 0 0 0 Z " fill="#000000" transform="translate(850,46)"/>
<path d="M0 0 C3.65148915 1.49825676 5.59041744 3.57431133 8.125 6.5625 C15.65802008 15.36720049 15.65802008 15.36720049 25 22 C24.48474397 27.28137429 22.74522883 30.57221156 20 35 C14.28508122 33.94627311 11.11285113 29.96826361 7.83496094 25.36328125 C-2.13914501 10.61408208 -2.13914501 10.61408208 -1.6875 5.375 C-1 2 -1 2 0 0 Z " fill="#000000" transform="translate(759,112)"/>
<path d="M0 0 C3 1 3 1 4 3 C4.09521114 18.61462624 0.52779676 33.75947345 -8 47 C-10.11132812 48.17285156 -10.11132812 48.17285156 -12 49 C-12.23509883 44.56341385 -12.37534167 40.1284531 -12.5 35.6875 C-12.56703125 34.44419922 -12.6340625 33.20089844 -12.703125 31.91992188 C-12.87997211 23.49757817 -11.50774223 18.86148099 -5.9765625 12.4453125 C-2.96127653 8.71493894 -1.4888642 4.5155684 0 0 Z " fill="#000000" transform="translate(907,84)"/>
<path d="M0 0 C-1.6040136 3.89019391 -4.26491985 6.62600582 -7.125 9.625 C-12.03829745 14.86910176 -16.60607905 20.30930581 -21 26 C-24.68079406 25.43934925 -26.25679731 24.08065383 -28.6875 21.3125 C-29.28949219 20.64863281 -29.89148438 19.98476562 -30.51171875 19.30078125 C-32.29777036 16.53966734 -32.65215947 14.24187371 -33 11 C-6.38961962 0 -6.38961962 0 0 0 Z " fill="#000000" transform="translate(845,45)"/>
<path d="M0 0 C2.9921875 1.96875 2.9921875 1.96875 5.875 4.5 C6.84179688 5.3353125 7.80859375 6.170625 8.8046875 7.03125 C9.52914062 7.6809375 10.25359375 8.330625 11 9 C10 12 10 12 7.9609375 13.16796875 C7.10757813 13.50441406 6.25421875 13.84085938 5.375 14.1875 C4.53710938 14.53167969 3.69921875 14.87585937 2.8359375 15.23046875 C-4.06351562 17.1026344 -10.61831901 15.4531876 -17.4375 14 C-18.35982422 13.80921875 -19.28214844 13.6184375 -20.23242188 13.421875 C-22.48963929 12.95405792 -24.7453418 12.47997253 -27 12 C-20.29645578 4.86628182 -10.10495026 -1.02531891 0 0 Z " fill="#000000" transform="translate(821,10)"/>
<path d="M0 0 C7.06816855 -0.44307922 12.11453077 2.3131256 18 6 C24.22955209 12.82284277 24.32305047 21.24174288 24 30 C20.487067 28.51588448 18.40106498 26.52245211 15.8125 23.75 C12.73217498 20.52687846 9.99133188 18.3284788 6.0625 16.25 C2.86241273 14.29872728 2.12155128 13.39292159 0.9921875 9.7421875 C0.49229491 6.48232455 0.15146781 3.2932033 0 0 Z " fill="#000000" transform="translate(883,45)"/>
<path d="M0 0 C-1.26699013 3.45103978 -2.74046709 6.26386587 -4.875 9.25 C-8.341887 14.32349318 -10.96560597 19.6356073 -12.7734375 25.515625 C-14.38479243 28.7793885 -16.3610021 29.99605501 -19.375 32 C-23.36308538 34.66588996 -26.03978777 37.24431224 -29 41 C-29.66 41 -30.32 41 -31 41 C-29.05156538 24.90105894 -16.56595649 11.23735142 -4.75 1.0625 C-3 0 -3 0 0 0 Z " fill="#000000" transform="translate(786,24)"/>
<path d="M0 0 C4.13679126 4.95691315 5.8519287 10.99566418 8 17 C8.39638672 18.10408203 8.39638672 18.10408203 8.80078125 19.23046875 C9.96421177 22.81573424 10.09608244 25.38292795 9 29 C5.55512522 29.91863327 2.34589248 30.05428223 -1.1953125 30.03125 C-2.09523926 30.02673828 -2.99516602 30.02222656 -3.92236328 30.01757812 C-4.6079834 30.01177734 -5.29360352 30.00597656 -6 30 C-5.31133946 25.88738754 -4.61747258 21.77569856 -3.91870117 17.66479492 C-3.68157844 16.26529951 -3.4458969 14.86555914 -3.21166992 13.46557617 C-2.87534365 11.45686216 -2.53389604 9.44907732 -2.19140625 7.44140625 C-1.98717041 6.23170166 -1.78293457 5.02199707 -1.57250977 3.77563477 C-1 1 -1 1 0 0 Z " fill="#000000" transform="translate(852,50)"/>
<path d="M0 0 C8.07974117 5.6139891 16.21138429 12.25557131 21 21 C21 21.99 21 22.98 21 24 C18.57151316 23.29832655 16.15033286 22.57983413 13.734375 21.8359375 C12.08691203 21.33228453 10.4320106 20.85105173 8.765625 20.4140625 C3.58881525 18.86904564 1.32986875 16.45344324 -1.578125 11.9375 C-3.1470009 9.79969108 -4.82122517 8.48976057 -7 7 C-5.54744301 3.17053157 -3.57104439 1.87949705 0 0 Z " fill="#000000" transform="translate(877,23)"/>
<path d="M0 0 C4.78288979 1.43574776 7.68585713 4.29994194 11.0625 7.8125 C11.8369043 8.59463867 11.8369043 8.59463867 12.62695312 9.39257812 C21.00580143 17.94220551 21.00580143 17.94220551 20.98828125 21.13671875 C19.73435146 23.50084725 18.46137736 24.41611149 16.1875 25.8125 C15.50042969 26.25207031 14.81335938 26.69164063 14.10546875 27.14453125 C12 28 12 28 9.8984375 28.109375 C6.7036017 26.24243391 6.33976194 22.81712083 5.4375 19.4375 C5.01737435 17.9734552 4.59551747 16.50990603 4.171875 15.046875 C3.97271484 14.34498047 3.77355469 13.64308594 3.56835938 12.91992188 C2.8893987 10.62638805 2.07274077 8.40895326 1.1875 6.1875 C0 3 0 3 0 0 Z " fill="#000000" transform="translate(855,49)"/>
<path d="M0 0 C22.19140625 -0.26953125 22.19140625 -0.26953125 29 2 C29 2.66 29 3.32 29 4 C28.39526855 4.19634033 27.79053711 4.39268066 27.16748047 4.5949707 C24.40171715 5.49597516 21.63836614 6.40417132 18.875 7.3125 C17.92367187 7.62123047 16.97234375 7.92996094 15.9921875 8.24804688 C11.09951754 9.86194842 6.60391943 11.66935543 2 14 C1.01 14 0.02 14 -1 14 C-1.95684238 8.4503142 -2.01815566 5.37661316 0 0 Z " fill="#000000" transform="translate(811,41)"/>
<path d="M0 0 C4.27081914 -0.02897435 8.54161309 -0.04678996 12.8125 -0.0625 C14.63491211 -0.07506836 14.63491211 -0.07506836 16.49414062 -0.08789062 C18.23920898 -0.09272461 18.23920898 -0.09272461 20.01953125 -0.09765625 C21.09307861 -0.10289307 22.16662598 -0.10812988 23.27270508 -0.11352539 C26 0 26 0 29 1 C29 4.3 29 7.6 29 11 C11.60407527 11.47843577 11.60407527 11.47843577 4.375 5.5 C1.7734375 3.03125 1.7734375 3.03125 0 1 C0 0.67 0 0.34 0 0 Z " fill="#000000" transform="translate(823,10)"/>
<path d="M0 0 C3.04682204 1.11750273 5.95196167 2.46891777 8.875 3.875 C9.64585937 4.22691406 10.41671875 4.57882813 11.2109375 4.94140625 C11.943125 5.28816406 12.6753125 5.63492188 13.4296875 5.9921875 C14.09210449 6.30526855 14.75452148 6.61834961 15.43701172 6.94091797 C17 8 17 8 18 11 C7.32480925 10.43114063 -3.33961555 9.80552744 -14 9 C-8.01189598 -1.94377631 -8.01189598 -1.94377631 0 0 Z " fill="#000000" transform="translate(825,30)"/>
<path d="M0 0 C7.16707877 0.32577631 12.76927124 3.65443628 19 7 C19 11 19 11 17.375 12.8125 C14.0496572 14.4751714 12.5760869 14.01210007 9 13 C5.9520556 11.76286381 2.96776506 10.4179322 0 9 C0 6.03 0 3.06 0 0 Z " fill="#000000" transform="translate(854,13)"/>
<path d="M0 0 C7.44379088 2.23313726 14.11976695 5.40272079 21 9 C20.43500935 12.7157043 19.88972722 15.72447281 18 19 C14.79829193 18.42775971 13.25903249 17.60863108 11.08984375 15.19921875 C10.57486328 14.63396484 10.05988281 14.06871094 9.52929688 13.48632812 C9.00400391 12.89271484 8.47871094 12.29910156 7.9375 11.6875 C7.40833984 11.10548828 6.87917969 10.52347656 6.33398438 9.92382812 C3.73884464 7.04866077 1.25264646 4.15682289 -1 1 C-0.67 0.67 -0.34 0.34 0 0 Z " fill="#000000" transform="translate(861,48)"/>
<path d="M0 0 C3.45831586 -0.02894547 6.91660072 -0.04678 10.375 -0.0625 C11.35984375 -0.07087891 12.3446875 -0.07925781 13.359375 -0.08789062 C14.77089844 -0.09272461 14.77089844 -0.09272461 16.2109375 -0.09765625 C17.51490479 -0.10551147 17.51490479 -0.10551147 18.84521484 -0.11352539 C21 0 21 0 23 1 C24.37097852 4.56454416 24.07243154 8.23355995 24 12 C19.52088641 10.577625 15.2456786 8.87515935 10.9375 7 C6.97710343 5.27995806 3.01850019 3.580053 -1 2 C-0.67 1.34 -0.34 0.68 0 0 Z " fill="#000000" transform="translate(858,43)"/>
<path d="M0 0 C2.89971236 1.17962366 4.23060635 2.51796092 6.22265625 4.91796875 C6.82722656 5.62824219 7.43179688 6.33851562 8.0546875 7.0703125 C9.41015625 8.98046875 9.41015625 8.98046875 9.41015625 10.98046875 C1.82015625 10.98046875 -5.76984375 10.98046875 -13.58984375 10.98046875 C-12.36008647 7.29119692 -10.82196262 6.18321741 -7.83984375 3.73046875 C-6.54820312 2.63992187 -6.54820312 2.63992187 -5.23046875 1.52734375 C-2.58984375 -0.01953125 -2.58984375 -0.01953125 0 0 Z " fill="#000000" transform="translate(868.58984375,30.01953125)"/>
<path d="M0 0 C4.15050444 3.90635712 8.02455804 8.11250427 11 13 C11 13.99 11 14.98 11 16 C5.90117545 14.4719611 1.34334341 12.28963144 -3.375 9.875 C-4.11105469 9.50246094 -4.84710937 9.12992188 -5.60546875 8.74609375 C-7.40550358 7.8343878 -9.20301402 6.91770068 -11 6 C-11 5.34 -11 4.68 -11 4 C-7.37 2.68 -3.74 1.36 0 0 Z " fill="#000000" transform="translate(834,22)"/>
<path d="M0 0 C4.29 0 8.58 0 13 0 C13.86626993 4.33134963 13.98617411 7.02868398 13.5625 11.3125 C13.46066406 12.38113281 13.35882812 13.44976562 13.25390625 14.55078125 C13.17011719 15.35902344 13.08632813 16.16726562 13 17 C12.01 17 11.02 17 10 17 C8.02734375 14.4453125 8.02734375 14.4453125 5.9375 11.125 C3.26704673 6.82325693 3.26704673 6.82325693 0 3 C0 2.01 0 1.02 0 0 Z " fill="#000000" transform="translate(838,22)"/>
<path d="M0 0 C-1.50363551 4.18804001 -4.01971852 5.50179064 -7.8125 7.625 C-8.85019531 8.21539062 -9.88789062 8.80578125 -10.95703125 9.4140625 C-15.4893092 11.77619966 -18.84315862 13.29467665 -24 13 C-22.41881722 8.94392243 -21.23184617 6.03621429 -17.12695312 4.13037109 C-5.54005198 0 -5.54005198 0 0 0 Z " fill="#000000" transform="translate(879,150)"/>
<path d="M0 0 C4.05606165 0.46800711 7.46588679 0.87953208 11 3 C10.64037102 5.85179471 10.11014144 6.89395384 8.00390625 8.921875 C7.19824219 9.52515625 6.39257812 10.1284375 5.5625 10.75 C4.75941406 11.36359375 3.95632813 11.9771875 3.12890625 12.609375 C1 14 1 14 -1 14 C-1.02705729 12.22925083 -1.04642195 10.45838289 -1.0625 8.6875 C-1.07410156 7.70136719 -1.08570313 6.71523438 -1.09765625 5.69921875 C-1 3 -1 3 0 0 Z " fill="#000000" transform="translate(854,24)"/>
<path d="M0 0 C5.1380385 6.80366636 5.1380385 6.80366636 4.625 11.25 C4.41875 12.1575 4.2125 13.065 4 14 C3.01 14 2.02 14 1 14 C0.06380187 10.84493858 -0.1057123 8.03413498 -0.0625 4.75 C-0.05347656 3.85796875 -0.04445313 2.9659375 -0.03515625 2.046875 C-0.02355469 1.37140625 -0.01195312 0.6959375 0 0 Z " fill="#000000" transform="translate(753,99)"/>
</svg>
